<?xml version="1.0" encoding="utf-8"?>
<!-- Generator: Adobe Illustrator 19.2.1, SVG Export Plug-In . SVG Version: 6.00 Build 0)  -->
<svg version="1.1" id="layer" xmlns="http://www.w3.org/2000/svg" xmlns:xlink="http://www.w3.org/1999/xlink" x="0px" y="0px"
	 viewBox="0 0 652 652" style="enable-background:new 0 0 652 652;" xml:space="preserve">
<style type="text/css">
	.st0{fill:#9909E3;}
	.st1{fill:#FFFFFF;}
</style>
<path class="st0" d="M299.7,296.2c-3,0-6.1-2.2-9.1-6.7c-2-3.1-3-5.5-3-7.1c0-2.8,1.8-5.3,5.5-7.7c3.6-2.3,7.7-3.6,12-3.5h71.4
	c4.5,0,6.8,2.1,6.8,6.2c0,4.6-1.3,9.1-3.8,13c-2.6,3.9-5.3,5.9-8.4,5.9h-23.2v78c0,4.7-1.3,9-3.8,12.9c-2.6,3.9-5.4,5.9-8.4,5.9
	c-3,0-6.1-2.2-9.1-6.7c-2-3.1-3-5.5-3-7.1v-83H299.7z M410.5,322.1c-5.6,0-10.4,1.6-14.3,4.7c-4,3.2-6.4,7.4-7.3,12.7h41.2
	c-0.2-4.8-2.3-9.3-5.9-12.4C420.4,323.7,415.9,322.1,410.5,322.1L410.5,322.1z M388.9,356.9c1.3,5.4,4.1,9.7,8.4,13
	c4.3,3.3,9.5,4.9,15.5,4.9c5.1,0,11.2-1.7,18.3-5.2c3.3-1.6,6.3-2.4,9.1-2.4c3.7,0,5.6,1.7,5.6,5c0,3-0.7,5.9-2,8.6
	c-1.3,2.8-3,4.8-5.1,6c-4.1,2.5-8.5,4.4-13.2,5.6c-4.7,1.3-9.5,2-14.4,2c-8.4,0-16-2.2-22.9-6.6c-6.7-4.2-12.3-10-16.2-16.9
	c-3.8-6.7-5.8-14.3-5.8-22.1c0-8.7,2.1-16.7,6.3-23.7c4.2-7.1,9.7-12.5,16.4-16.4c6.7-3.9,14.4-5.8,22.2-5.8c7.8,0,14.8,1.8,21,5.4
	c6.2,3.6,11,8.4,14.4,14.4c3.4,6,5.1,12.8,5.1,19.7c0,3.5-1,7-2.9,9.9c-1.9,2.9-4,4.4-6.4,4.4L388.9,356.9L388.9,356.9z M483.9,393
	c-5.2,0-9.8-2-13.6-6.1c-3.8-3.8-5.8-9-5.8-14.4v-91.6c0-2.5,1.8-4.9,5.3-7.2c3.4-2.2,7.4-3.4,11.4-3.4c4.3,0,6.5,2,6.5,5.9v89
	c0,1.5,0.3,2.7,1,3.7c0.6,1,1.8,1.8,3.4,2.5c1.9,0.8,2.8,2.4,2.8,4.8c0,4.3-1.2,8.1-3.5,11.6C489,391.2,486.5,393,483.9,393
	 M519.1,393c-2.7,0-5.6-2.2-8.7-6.6c-1.9-3-2.8-5.2-2.8-6.7v-64.4c0-2.5,1.8-4.9,5.3-7.2c3.4-2.2,7.4-3.4,11.4-3.4
	c4.3,0,6.5,1.9,6.5,5.9v64.3c0,3.1-0.6,6.1-1.8,9c-1.2,2.9-2.7,5.1-4.5,6.7C522.7,392.2,520.9,393,519.1,393 M519.1,293.6
	c-3,0-6.2-2.4-9.4-7.1c-2.2-3.3-3.3-5.9-3.3-7.8c0-2.9,2-5.6,5.9-8.1c3.8-2.5,8.2-3.8,12.7-3.8c4.9,0,7.3,2.2,7.3,6.6
	c0,3.4-0.7,6.8-2,9.9c-1.3,3.2-3,5.7-5.1,7.5C523.3,292.7,521.2,293.6,519.1,293.6 M588.6,371.6c5.2,0,10.3-1.5,14.7-4.3v-39.2
	c-4.3-2.4-9.1-3.6-14.5-3.6c-6.6,0-12.2,2.2-16.7,6.7c-4.5,4.4-6.7,10-6.7,16.6c0,6.7,2.2,12.3,6.7,16.9
	C576.6,369.3,582.1,371.6,588.6,371.6 M587,393c-8.4,0-16-2.1-22.8-6.2c-6.6-4-12.1-9.6-15.9-16.3c-3.8-6.7-5.7-14.3-5.7-22
	c0-8.5,2.2-16.3,6.5-23.3c4.3-7,9.9-12.5,16.8-16.3c6.8-3.8,14.4-5.8,22.2-5.8c6.8,0,13.3,1.8,19.7,5.5c4.1-2.7,8.1-4,12.2-4
	c4.3,0,6.5,2,6.5,5.9v64.4c0,3.1-0.6,6.1-1.8,9c-1.2,2.9-2.7,5.1-4.5,6.7c-1.8,1.6-3.6,2.4-5.3,2.4c-2.7,0-5.6-2.2-8.7-6.6
	c-1-1.5-1.8-3.1-2.4-4.8c-0.9,2.4-2.1,4.6-3.8,6.6c-1.6,1.8-3.2,3-5,3.6C592.5,392.6,589.8,393,587,393 M180.7,382
	c30.3-17.4,52-39.2,62-62.5c4.3-17.6,6.5-35.6,6.5-53.8c0-2.7-0.1-5.2-0.4-7.6c-1.8,28.1-38.6,63.5-87.2,86.6
	c-58.7,27.9-102.7,35.4-122.4,14.1c6.8,13.3,16,26.8,26.3,38.8C89.8,418.8,129.6,411.2,180.7,382"/>
<path class="st0" d="M154.8,324.8c55.4-26.4,93.9-63.9,87.2-88.8c-11.1-18.8-33.4-26-57.3-26c-71,0-158.1,46.3-158.1,105.3
	c0,7.6,1.7,16.1,4.7,25C47.4,361.4,96.9,352.3,154.8,324.8 M150.1,408.4c-38.9,15.6-61.2,10.6-73.5,0.9l-0.2-0.1
	c19.1,18.8,40.8,32,59.9,32c33.4,0,79-40,100.7-102.1C224.7,361.5,198.6,389,150.1,408.4"/>
<path class="st1" d="M150.1,408.4c48.5-19.4,74.6-46.9,86.8-69.3c2.2-6.3,4.1-12.9,5.8-19.6c-10,23.2-31.7,45.1-62,62.5
	c-51.1,29.3-90.9,36.9-115.1,15.6c3.4,4,7,7.8,10.8,11.5l0.2,0.1C88.9,419,111.2,424,150.1,408.4 M161.6,344.7
	c48.7-23.1,85.4-58.5,87.2-86.6c-0.9-8.7-3.3-16.1-6.8-22.2c6.7,24.9-31.8,62.4-87.2,88.8c-57.9,27.6-107.4,36.6-123.6,15.4
	c2.1,6.1,4.8,12.4,8,18.7C58.9,380.1,102.9,372.6,161.6,344.7"/>
</svg>
